<svg xmlns="http://www.w3.org/2000/svg" viewBox="0 0 64 64"><defs><linearGradient id="s" x1="10" y1="8" x2="54" y2="56" gradientUnits="userSpaceOnUse"><stop offset="0" stop-color="#fff"/><stop offset=".58" stop-color="#d9d9d9"/><stop offset="1" stop-color="#8a0000"/></linearGradient></defs><rect width="64" height="64" rx="14" fill="#050505"/><path d="M48.5 17.5C43.9 13.7 38.1 11.8 31.8 11.8c-8.9 0-16 4.4-16 10.8 0 6.1 5.4 8.8 14.9 11.2l3.8 1c5.4 1.4 7.8 2.7 7.8 5.8 0 3.7-4.1 6.2-10 6.2-6.2 0-11.5-2.2-16.1-6.3l-3.4 5.2c5.2 4.9 11.8 7.4 19.3 7.4 9.8 0 17.1-4.9 17.1-12.8 0-6.8-5-9.9-14.7-12.4l-3.8-1c-5.5-1.4-8-2.6-8-5.1 0-2.9 3.5-4.8 8.7-4.8 5 0 9.7 1.7 13.5 4.8z" fill="url(#s)"/></svg>